<?xml version="1.0" encoding="iso-8859-1"?>
<!-- Uploaded to: SVG Repo, www.svgrepo.com, Generator: SVG Repo Mixer Tools -->
<svg version="1.1" id="Layer_1" xmlns="http://www.w3.org/2000/svg" xmlns:xlink="http://www.w3.org/1999/xlink" 
	 viewBox="0 0 512 512" xml:space="preserve">
<g>
	<rect x="200.954" style="fill:#F7B239;" width="95.419" height="69.416"/>
	<polygon style="fill:#F7B239;" points="425.848,263.543 425.848,386.101 325.256,386.101 325.256,358.431 395.781,263.543 
		395.793,263.543 	"/>
</g>
<path style="fill:#F95428;" d="M247.111,437.984h-28.155h-58.446h-0.012h-28.143v26.101h-20.104c-7.213,0-13.729-2.928-18.451-7.65
	c-4.722-4.722-7.65-11.238-7.65-18.451c0-14.414,0-26.101,0-26.101h239.104l28.087,39.617v12.584H247.111L247.111,437.984
	L247.111,437.984z"/>
<path style="fill:#E6E6E6;" d="M262.021,109.561v37.457c-10.27-5.076-21.402-7.614-32.558-7.614
	c-11.167,0-22.323,2.538-32.581,7.614v-37.457c10.258-5.076,21.414-7.614,32.57-7.614
	C240.606,101.947,251.75,104.485,262.021,109.561z"/>
<path style="fill:#F7B239;" d="M246.745,301.083l-17.294,25.794l-17.294-25.794c4.934-3.317,10.884-5.265,17.294-5.265
	c6.398,0,12.336,1.936,17.282,5.265L246.745,301.083L246.745,301.083z"/>
<path style="fill:#E6E6E6;" d="M229.451,271.547c11.097,0,22.17,2.255,32.558,6.752h0.012l-15.275,22.783h-0.012
	c-4.946-3.329-10.884-5.265-17.282-5.265c-6.41,0-12.36,1.948-17.294,5.265l-15.275-22.783
	C207.27,273.802,218.366,271.547,229.451,271.547z"/>
<path style="fill:#F7B239;" d="M229.463,139.403l-0.012,0.425v131.719c-11.085,0-22.181,2.255-32.57,6.752V147.018
	C207.14,141.942,218.295,139.403,229.463,139.403z"/>
<path style="fill:#E09B2D;" d="M262.021,147.018v131.282h-0.012c-10.388-4.498-21.461-6.752-32.558-6.752V139.828l0.012-0.425
	C240.618,139.403,251.75,141.942,262.021,147.018z"/>
<polygon style="fill:#2BA5F7;" points="395.781,263.543 395.781,358.431 340.751,358.431 340.751,263.543 340.751,103.387 
	395.781,103.387 "/>
<path style="fill:#F95428;" d="M112.252,37.15c-14.414,0-26.101,11.687-26.101,26.101V425.4c0-14.414,11.687,18.223,26.101,18.223
	l213.003-15.739l28.087-28.583V37.15H112.252z"/>
<path style="fill:#C93A27;" d="M264.374,104.799c-10.806-5.341-22.883-8.164-34.923-8.164c-12.053,0-24.13,2.824-34.925,8.165
	c-1.811,0.896-2.956,2.741-2.956,4.761v168.739c0,1.053,0.313,2.084,0.9,2.958l32.57,48.577c0.986,1.471,2.641,2.354,4.413,2.354
	s3.426-0.883,4.413-2.354l32.568-48.577c0.587-0.875,0.901-1.905,0.901-2.958V109.561
	C267.333,107.54,266.185,105.694,264.374,104.799z M229.451,107.259c9.332,0,18.688,1.96,27.257,5.69v26.033
	c-8.711-3.204-17.987-4.891-27.246-4.891c-9.277,0-18.562,1.687-27.269,4.89v-26.033
	C210.753,109.218,220.111,107.259,229.451,107.259z M202.193,150.422c6.935-3.022,14.392-4.871,21.945-5.469v121.459
	c-7.49,0.451-14.832,1.862-21.945,4.208V150.422z M229.451,276.859c8.373,0,16.563,1.367,24.438,4.028l-8.815,13.148
	c-4.853-2.318-10.169-3.53-15.624-3.53c-5.455,0-10.77,1.21-15.626,3.526l-8.816-13.148
	C212.884,278.225,221.074,276.859,229.451,276.859z M234.763,266.412v-121.46c7.543,0.597,14.999,2.447,21.945,5.472v120.199
	C249.594,268.275,242.252,266.863,234.763,266.412z M229.451,317.337l-9.613-14.338c3.035-1.225,6.285-1.87,9.613-1.87
	c3.329,0,6.579,0.646,9.612,1.871L229.451,317.337z"/>
<path style="fill:#E54728;" d="M112.252,37.15v362.149c-14.414,0-26.101,11.687-26.101,26.1V63.25
	C86.152,48.837,97.839,37.15,112.252,37.15z"/>
<path style="fill:#E6E6E6;" d="M112.252,451.5c-7.213,0-13.729-2.928-18.451-7.65c-4.722-4.722-7.65-11.238-7.65-18.451
	c0-14.414,11.687-26.1,26.101-26.1h241.09V451.5H112.252z"/>
<polygon style="fill:#F95428;" points="218.956,484.294 218.956,512 132.356,512 132.356,451.5 132.356,425.4 160.499,425.4 
	160.499,484.294 "/>
<polygon style="fill:#F7B239;" points="247.111,451.5 247.111,484.294 218.956,484.294 160.499,484.294 160.499,425.4 
	160.511,425.4 218.956,425.4 247.111,425.4 "/>
</svg>